# xmcd CD database file
#
# Track frame offsets:
#	150
#	10679
#	26753
#	41597
#	54439
#	74673
#	89137
#	103448
#	120382
#	138032
#	152052
#	164631
#
# Disc length: 2452 seconds
#
# Revision: 0
# Processed by: cddbd v1.5.2PL0 Copyright (c) Steve Scherf et al.
# Submitted via: CDex 1.51
#
DISCID=a509920c
DTITLE=Superstar Country Band - Rodeo Country Hits
DYEAR=1900
DGENRE=Country
TTITLE0=What A Guy Got To Do
TTITLE1=Fast As You
TTITLE2=Every Little Thing
TTITLE3=Street Of Bakerfield
TTITLE4=All You Ever Do
TTITLE5=Tonight The Bottle Let Me Down
TTITLE6=He Drink Tequila
TTITLE7=Friend's In Low Places
TTITLE8=Mountain Music
TTITLE9=Don't Tell Me What To Do
TTITLE10=Calling Baton Rouge
TTITLE11=Who's Cheating Who?
EXTD=
EXTT0=
EXTT1=
EXTT2=
EXTT3=
EXTT4=
EXTT5=
EXTT6=
EXTT7=
EXTT8=
EXTT9=
EXTT10=
EXTT11=
PLAYORDER=
